<svg width="64" height="64" viewBox="0 0 64 64" fill="none" xmlns="http://www.w3.org/2000/svg">
    <rect x="4" y="4" width="56" height="56" rx="12" fill="#541313" stroke="#000000" stroke-width="2"/>
    
    <g transform="translate(14, 16)">
        <path d="M31.04 22.5067L34.0667 12C34.32 11.1067 33.6534 10.2133 32.72 10.2133H12.2934L11.0667 4H4V6.66667H8.72004L14.0267 25.2133C12.1067 26.1067 10.6667 28.08 10.6667 30.4C10.6667 33.3333 13.0667 35.7333 16 35.7333C18.6267 35.7333 20.8267 33.84 21.2534 31.3333H27.4134C27.84 33.84 30.04 35.7333 32.6667 35.7333C35.6 35.7333 38 33.3333 38 30.4C38 28.08 36.56 26.1067 34.64 25.2133L36 20.5067H20.92L19.0267 13.8667H31.4267L28.9334 22.5067H31.04ZM16 33.0667C14.5334 33.0667 13.3334 31.8667 13.3334 30.4C13.3334 28.9333 14.5334 27.7333 16 27.7333C17.4667 27.7333 18.6667 28.9333 18.6667 30.4C18.6667 31.8667 17.4667 33.0667 16 33.0667ZM32.6667 33.0667C31.2 33.0667 30 31.8667 30 30.4C30 28.9333 31.2 27.7333 32.6667 27.7333C34.1334 27.7333 35.3334 28.9333 35.3334 30.4C35.3334 31.8667 34.1334 33.0667 32.6667 33.0667Z" fill="white"/>
        <path d="M16 5.33333H28V10.6667H16V5.33333Z" fill="white"/>
        <path d="M21.3333 5.33333V10.6667" stroke="#ffffff" stroke-width="1"/>
    </g>
</svg>